<svg width="38" height="38" viewBox="0 0 38 38" fill="none" xmlns="http://www.w3.org/2000/svg">
<path d="M11.4249 8.42C13.0956 8.42 14.4499 7.06566 14.4499 5.395C14.4499 3.72433 13.0956 2.37 11.4249 2.37C9.75424 2.37 8.3999 3.72433 8.3999 5.395C8.3999 7.06566 9.75424 8.42 11.4249 8.42Z" stroke="#2F86EB" stroke-width="3"/>
<path d="M22.025 8.42C23.6957 8.42 25.05 7.06566 25.05 5.395C25.05 3.72433 23.6957 2.37 22.025 2.37C20.3543 2.37 19 3.72433 19 5.395C19 7.06566 20.3543 8.42 22.025 8.42Z" stroke="#2F86EB" stroke-width="3"/>
<path d="M23.5402 11.46H9.91016V20.54H23.5402V11.46Z" stroke="#2F86EB" stroke-width="3"/>
<path d="M23.54 14.4814L28.0811 11.46H29.6V20.54H28.0811L23.54 17.5028V14.4814Z" stroke="#2F86EB" stroke-width="3"/>
<path d="M17.5 37.21V20.55" stroke="#2F86EB" stroke-width="3"/>
<path d="M17.5 20.55L26.6 35.6897V37.21" stroke="#2F86EB" stroke-width="3"/>
<path d="M17.4999 20.55L8.3999 35.6897V37.21" stroke="#2F86EB" stroke-width="3"/>
</svg>
